<mxfile host="app.diagrams.net" modified="2022-08-24T01:07:59.304Z" agent="5.0 (Linux; Android 10) AppleWebKit/537.36 (KHTML, like Gecko) Version/4.0 Chrome/88.0.4324.93 Mobile DuckDuckGo/5 Safari/537.36" etag="SQh0UZUURcWDGU_2m4mi" version="20.2.7" type="github">
  <diagram id="UY1wtT5hkkWjpCkivM2H" name="Page-1">
    <mxGraphModel dx="543" dy="1162" grid="1" gridSize="10" guides="1" tooltips="1" connect="1" arrows="1" fold="1" page="0" pageScale="1" pageWidth="827" pageHeight="1169" math="0" shadow="0">
      <root>
        <mxCell id="0" />
        <mxCell id="1" parent="0" />
        <mxCell id="vZ2UnmSK3K3OH7s4cI46-1" value="If" style="strokeWidth=2;html=1;shape=mxgraph.flowchart.terminator;whiteSpace=wrap;hachureGap=4;fontSize=18;" vertex="1" parent="1">
          <mxGeometry x="160" y="80" width="80" height="40" as="geometry" />
        </mxCell>
        <mxCell id="vZ2UnmSK3K3OH7s4cI46-2" value="" style="edgeStyle=none;orthogonalLoop=1;jettySize=auto;html=1;rounded=0;endArrow=open;startSize=14;endSize=14;sourcePerimeterSpacing=8;targetPerimeterSpacing=8;curved=1;exitX=0.5;exitY=1;exitDx=0;exitDy=0;exitPerimeter=0;fontSize=18;" edge="1" parent="1" source="vZ2UnmSK3K3OH7s4cI46-1">
          <mxGeometry width="120" relative="1" as="geometry">
            <mxPoint x="200" y="140" as="sourcePoint" />
            <mxPoint x="200" y="160" as="targetPoint" />
            <Array as="points" />
          </mxGeometry>
        </mxCell>
        <mxCell id="vZ2UnmSK3K3OH7s4cI46-4" value="Condition" style="strokeWidth=2;html=1;shape=mxgraph.flowchart.decision;whiteSpace=wrap;hachureGap=4;fontSize=18;" vertex="1" parent="1">
          <mxGeometry x="150" y="160" width="100" height="100" as="geometry" />
        </mxCell>
        <mxCell id="vZ2UnmSK3K3OH7s4cI46-5" value="Statements" style="rounded=1;whiteSpace=wrap;html=1;absoluteArcSize=1;arcSize=14;strokeWidth=2;hachureGap=4;fontSize=18;" vertex="1" parent="1">
          <mxGeometry x="150" y="310" width="100" height="100" as="geometry" />
        </mxCell>
        <mxCell id="vZ2UnmSK3K3OH7s4cI46-6" value="" style="edgeStyle=none;orthogonalLoop=1;jettySize=auto;html=1;rounded=0;endArrow=open;startSize=14;endSize=14;sourcePerimeterSpacing=8;targetPerimeterSpacing=8;curved=1;exitX=0.5;exitY=1;exitDx=0;exitDy=0;exitPerimeter=0;entryX=0.5;entryY=0;entryDx=0;entryDy=0;fontSize=18;" edge="1" parent="1" source="vZ2UnmSK3K3OH7s4cI46-4" target="vZ2UnmSK3K3OH7s4cI46-5">
          <mxGeometry width="120" relative="1" as="geometry">
            <mxPoint x="110" y="280" as="sourcePoint" />
            <mxPoint x="230" y="280" as="targetPoint" />
            <Array as="points" />
          </mxGeometry>
        </mxCell>
        <mxCell id="vZ2UnmSK3K3OH7s4cI46-7" value="True" style="edgeLabel;html=1;align=center;verticalAlign=middle;resizable=0;points=[];fontSize=18;" vertex="1" connectable="0" parent="vZ2UnmSK3K3OH7s4cI46-6">
          <mxGeometry x="-0.12" relative="1" as="geometry">
            <mxPoint as="offset" />
          </mxGeometry>
        </mxCell>
        <mxCell id="vZ2UnmSK3K3OH7s4cI46-9" value="Condition" style="strokeWidth=2;html=1;shape=mxgraph.flowchart.decision;whiteSpace=wrap;hachureGap=4;fontSize=18;" vertex="1" parent="1">
          <mxGeometry x="150" y="440" width="100" height="100" as="geometry" />
        </mxCell>
        <mxCell id="vZ2UnmSK3K3OH7s4cI46-10" value="Statements" style="rounded=1;whiteSpace=wrap;html=1;absoluteArcSize=1;arcSize=14;strokeWidth=2;hachureGap=4;fontSize=18;" vertex="1" parent="1">
          <mxGeometry x="150" y="590" width="100" height="100" as="geometry" />
        </mxCell>
        <mxCell id="vZ2UnmSK3K3OH7s4cI46-11" value="" style="edgeStyle=none;orthogonalLoop=1;jettySize=auto;html=1;rounded=0;endArrow=open;startSize=14;endSize=14;sourcePerimeterSpacing=8;targetPerimeterSpacing=8;curved=1;exitX=0.5;exitY=1;exitDx=0;exitDy=0;exitPerimeter=0;entryX=0.5;entryY=0;entryDx=0;entryDy=0;fontSize=18;" edge="1" parent="1" source="vZ2UnmSK3K3OH7s4cI46-9" target="vZ2UnmSK3K3OH7s4cI46-10">
          <mxGeometry width="120" relative="1" as="geometry">
            <mxPoint x="110" y="560" as="sourcePoint" />
            <mxPoint x="230" y="560" as="targetPoint" />
            <Array as="points" />
          </mxGeometry>
        </mxCell>
        <mxCell id="vZ2UnmSK3K3OH7s4cI46-22" value="True" style="edgeLabel;html=1;align=center;verticalAlign=middle;resizable=0;points=[];fontSize=18;" vertex="1" connectable="0" parent="vZ2UnmSK3K3OH7s4cI46-11">
          <mxGeometry x="-0.5333" y="-1" relative="1" as="geometry">
            <mxPoint as="offset" />
          </mxGeometry>
        </mxCell>
        <mxCell id="vZ2UnmSK3K3OH7s4cI46-13" value="" style="edgeStyle=none;orthogonalLoop=1;jettySize=auto;html=1;rounded=0;endArrow=open;startSize=14;endSize=14;sourcePerimeterSpacing=8;targetPerimeterSpacing=8;exitX=0;exitY=0.5;exitDx=0;exitDy=0;exitPerimeter=0;entryX=0;entryY=0.5;entryDx=0;entryDy=0;entryPerimeter=0;fontSize=18;" edge="1" parent="1" source="vZ2UnmSK3K3OH7s4cI46-4" target="vZ2UnmSK3K3OH7s4cI46-9">
          <mxGeometry width="120" relative="1" as="geometry">
            <mxPoint x="160" y="190" as="sourcePoint" />
            <mxPoint x="230" y="340" as="targetPoint" />
            <Array as="points">
              <mxPoint x="80" y="210" />
              <mxPoint x="80" y="490" />
            </Array>
          </mxGeometry>
        </mxCell>
        <mxCell id="vZ2UnmSK3K3OH7s4cI46-14" value="False" style="edgeLabel;html=1;align=center;verticalAlign=middle;resizable=0;points=[];fontSize=18;" vertex="1" connectable="0" parent="vZ2UnmSK3K3OH7s4cI46-13">
          <mxGeometry x="-0.8143" y="-1" relative="1" as="geometry">
            <mxPoint as="offset" />
          </mxGeometry>
        </mxCell>
        <mxCell id="vZ2UnmSK3K3OH7s4cI46-15" value="Statements" style="rounded=1;whiteSpace=wrap;html=1;absoluteArcSize=1;arcSize=14;strokeWidth=2;hachureGap=4;fontSize=18;" vertex="1" parent="1">
          <mxGeometry x="150" y="740" width="100" height="100" as="geometry" />
        </mxCell>
        <mxCell id="vZ2UnmSK3K3OH7s4cI46-16" value="" style="edgeStyle=none;orthogonalLoop=1;jettySize=auto;html=1;rounded=0;endArrow=open;startSize=14;endSize=14;sourcePerimeterSpacing=8;targetPerimeterSpacing=8;entryX=1;entryY=0.5;entryDx=0;entryDy=0;fontSize=18;" edge="1" parent="1" target="vZ2UnmSK3K3OH7s4cI46-15">
          <mxGeometry width="120" relative="1" as="geometry">
            <mxPoint x="250" y="490" as="sourcePoint" />
            <mxPoint x="230" y="660" as="targetPoint" />
            <Array as="points">
              <mxPoint x="320" y="490" />
              <mxPoint x="320" y="790" />
            </Array>
          </mxGeometry>
        </mxCell>
        <mxCell id="vZ2UnmSK3K3OH7s4cI46-17" value="False" style="edgeLabel;html=1;align=center;verticalAlign=middle;resizable=0;points=[];fontSize=18;" vertex="1" connectable="0" parent="vZ2UnmSK3K3OH7s4cI46-16">
          <mxGeometry x="-0.8364" y="-1" relative="1" as="geometry">
            <mxPoint as="offset" />
          </mxGeometry>
        </mxCell>
        <mxCell id="vZ2UnmSK3K3OH7s4cI46-18" value="End" style="strokeWidth=2;html=1;shape=mxgraph.flowchart.terminator;whiteSpace=wrap;hachureGap=4;fontSize=18;" vertex="1" parent="1">
          <mxGeometry x="160" y="900" width="80" height="40" as="geometry" />
        </mxCell>
        <mxCell id="vZ2UnmSK3K3OH7s4cI46-21" value="" style="edgeStyle=none;orthogonalLoop=1;jettySize=auto;html=1;rounded=0;endArrow=open;startSize=14;endSize=14;sourcePerimeterSpacing=8;targetPerimeterSpacing=8;exitX=0.5;exitY=1;exitDx=0;exitDy=0;entryX=0.5;entryY=0;entryDx=0;entryDy=0;entryPerimeter=0;fontSize=18;" edge="1" parent="1" source="vZ2UnmSK3K3OH7s4cI46-15" target="vZ2UnmSK3K3OH7s4cI46-18">
          <mxGeometry width="120" relative="1" as="geometry">
            <mxPoint x="140" y="950" as="sourcePoint" />
            <mxPoint x="260" y="950" as="targetPoint" />
            <Array as="points" />
          </mxGeometry>
        </mxCell>
        <mxCell id="vZ2UnmSK3K3OH7s4cI46-26" value="" style="edgeStyle=none;orthogonalLoop=1;jettySize=auto;html=1;rounded=0;endArrow=open;startSize=14;endSize=14;sourcePerimeterSpacing=8;targetPerimeterSpacing=8;exitX=1;exitY=0.5;exitDx=0;exitDy=0;entryX=1;entryY=0.5;entryDx=0;entryDy=0;entryPerimeter=0;fontSize=18;" edge="1" parent="1" source="vZ2UnmSK3K3OH7s4cI46-5" target="vZ2UnmSK3K3OH7s4cI46-18">
          <mxGeometry width="120" relative="1" as="geometry">
            <mxPoint x="140" y="480" as="sourcePoint" />
            <mxPoint x="350" y="360" as="targetPoint" />
            <Array as="points">
              <mxPoint x="360" y="360" />
              <mxPoint x="360" y="920" />
            </Array>
          </mxGeometry>
        </mxCell>
        <mxCell id="vZ2UnmSK3K3OH7s4cI46-27" value="" style="edgeStyle=none;orthogonalLoop=1;jettySize=auto;html=1;rounded=0;endArrow=open;startSize=14;endSize=14;sourcePerimeterSpacing=8;targetPerimeterSpacing=8;exitX=0;exitY=0.5;exitDx=0;exitDy=0;entryX=0;entryY=0.5;entryDx=0;entryDy=0;entryPerimeter=0;fontSize=18;" edge="1" parent="1" source="vZ2UnmSK3K3OH7s4cI46-10" target="vZ2UnmSK3K3OH7s4cI46-18">
          <mxGeometry width="120" relative="1" as="geometry">
            <mxPoint x="120" y="640" as="sourcePoint" />
            <mxPoint x="240" y="640" as="targetPoint" />
            <Array as="points">
              <mxPoint x="80" y="640" />
              <mxPoint x="80" y="920" />
            </Array>
          </mxGeometry>
        </mxCell>
      </root>
    </mxGraphModel>
  </diagram>
</mxfile>
